<svg width="88" height="88" viewBox="0 0 88 88" fill="none" xmlns="http://www.w3.org/2000/svg">
<path fill-rule="evenodd" clip-rule="evenodd" d="M19.5275 8.39946C16.419 10.5707 13.6081 13.1379 11.1679 16.0277C21.1395 15.1029 33.8079 16.613 48.5159 23.9593C64.2221 31.8039 76.8694 32.0691 85.6713 30.3731C84.8726 27.9575 83.867 25.636 82.6761 23.429C72.6003 24.4906 59.6831 23.0854 44.6292 15.5666C35.0699 10.792 26.6434 8.82518 19.5275 8.39946ZM76.7903 15.0602C68.8333 6.17933 57.27 0.590332 44.3998 0.590332C40.6203 0.590332 36.953 1.07241 33.457 1.97832C38.192 3.2689 43.2219 5.15701 48.5159 7.80127C59.5375 13.3062 69.053 15.0787 76.7903 15.0602ZM87.5531 38.8519C76.9195 40.9494 62.2357 40.5186 44.6292 31.7246C28.1692 23.5033 15.0683 23.6068 6.23266 25.5683C5.77659 25.6694 5.33126 25.7758 4.89668 25.8865C3.73988 28.3997 2.81647 31.0424 2.15393 33.7868C2.86156 33.598 3.5928 33.4185 4.34725 33.2509C15.0665 30.8714 30.2118 30.9747 48.5159 40.1173C64.9762 48.3386 78.077 48.2351 86.9128 46.2736C87.2155 46.2066 87.5138 46.1371 87.8071 46.0655C87.8393 45.3811 87.8554 44.6924 87.8554 44C87.8554 42.2582 87.7528 40.5403 87.5531 38.8519ZM86.3883 55.2265C75.8579 57.0655 61.6017 56.3597 44.6292 47.8826C28.1692 39.6612 15.0683 39.7648 6.23266 41.7262C4.2714 42.1614 2.50708 42.6917 0.950702 43.2514C0.946459 43.5004 0.944336 43.75 0.944336 44C0.944336 67.9746 20.4 87.4098 44.3998 87.4098C64.5134 87.4098 81.4354 73.7594 86.3883 55.2265Z" fill="#0C6CCC"/>
</svg>
