<svg width="499" height="234" viewBox="0 0 499 234" fill="none" xmlns="http://www.w3.org/2000/svg">
<g filter="url(#filter0_i_58_744)">
<path d="M35.3138 166.04C28.7447 166.04 23.154 164.922 18.5417 162.686C13.9294 160.496 10.4119 157.305 7.98931 153.111C5.56668 148.965 4.35537 143.933 4.35537 138.017C4.35537 136.433 4.44854 134.825 4.6349 133.195C4.82126 131.564 5.0542 129.864 5.33374 128.093L15.2572 130.12C14.9777 131.704 14.768 133.101 14.6283 134.313C14.5351 135.524 14.4885 136.642 14.4885 137.667C14.4885 143.211 16.1424 147.241 19.4502 149.757C22.758 152.319 27.9294 153.601 34.9644 153.601C39.1574 153.601 42.6283 153.228 45.377 152.483C48.1724 151.737 50.2456 150.782 51.5967 149.617C52.9943 148.499 53.6932 147.334 53.6932 146.123C53.6932 145.191 53.3205 144.376 52.575 143.677C51.8762 143.025 50.8047 142.373 49.3604 141.72C47.9627 141.022 46.2389 140.276 44.189 139.484L47.2639 129.072C49.1274 129.864 51.0609 130.749 53.0642 131.727C55.0675 132.659 56.9311 133.777 58.6549 135.082C60.3787 136.386 61.7764 137.947 62.8479 139.764C63.9195 141.534 64.4552 143.631 64.4552 146.053C64.4552 148.01 64.0592 149.943 63.2672 151.854C62.4752 153.764 61.2872 155.557 59.7032 157.235C58.1657 158.958 56.2323 160.473 53.9028 161.777C51.62 163.128 48.9178 164.176 45.7963 164.922C42.6749 165.667 39.1807 166.04 35.3138 166.04ZM57.1175 142C49.1973 142 43.2106 140.02 39.1574 136.06L46.6349 127.255C47.0542 127.581 47.7531 127.93 48.7314 128.303C49.7564 128.676 50.991 128.978 52.4353 129.211C53.9261 129.444 55.4868 129.561 57.1175 129.561H64.9444V142H57.1175ZM64.9444 142V129.561C65.3637 129.561 65.6899 130.12 65.9228 131.238C66.2023 132.356 66.3421 133.847 66.3421 135.71C66.3421 137.621 66.2023 139.158 65.9228 140.323C65.6899 141.441 65.3637 142 64.9444 142ZM41.1141 182.882C39.6699 182.882 38.4586 182.393 37.4802 181.414C36.5484 180.483 36.0825 179.318 36.0825 177.92C36.0825 176.429 36.5484 175.195 37.4802 174.216C38.4586 173.285 39.6699 172.819 41.1141 172.819C42.5584 172.819 43.7464 173.285 44.6782 174.216C45.6566 175.195 46.1457 176.429 46.1457 177.92C46.1457 179.318 45.6566 180.483 44.6782 181.414C43.7464 182.393 42.5584 182.882 41.1141 182.882ZM29.5833 182.882C28.1391 182.882 26.9278 182.393 25.9494 181.414C25.0176 180.483 24.5517 179.318 24.5517 177.92C24.5517 176.429 25.0176 175.195 25.9494 174.216C26.9278 173.285 28.1391 172.819 29.5833 172.819C31.0276 172.819 32.2156 173.285 33.1474 174.216C34.1258 175.195 34.615 176.429 34.615 177.92C34.615 179.318 34.1258 180.483 33.1474 181.414C32.2156 182.393 31.0276 182.882 29.5833 182.882ZM65.0699 142V129.561H68.9135C70.7771 129.561 72.1747 129.398 73.1065 129.072C74.0383 128.745 74.6906 128.163 75.0633 127.324C75.436 126.439 75.6223 125.251 75.6223 123.76V106.15H86.3145V123.76C86.3145 127.627 85.639 130.912 84.2879 133.614C82.9368 136.316 80.9568 138.389 78.3478 139.834C75.7854 141.231 72.6406 141.953 68.9135 142H65.0699ZM93.0233 142C89.2496 142 86.0816 141.301 83.5192 139.903C80.9568 138.459 79 136.386 77.649 133.684C76.2979 130.935 75.6223 127.627 75.6223 123.76H86.3145C86.3145 125.251 86.4776 126.439 86.8037 127.324C87.1764 128.163 87.852 128.745 88.8303 129.072C89.8087 129.398 91.2064 129.561 93.0233 129.561H95.5392V142H93.0233ZM95.5392 142V129.561C95.9585 129.561 96.2846 130.12 96.5175 131.238C96.7971 132.356 96.9368 133.847 96.9368 135.71C96.9368 137.621 96.7971 139.158 96.5175 140.323C96.2846 141.441 95.9585 142 95.5392 142ZM65.0699 142C64.6506 142 64.3245 141.441 64.0915 140.323C63.812 139.158 63.6722 137.621 63.6722 135.71C63.6722 133.847 63.812 132.356 64.0915 131.238C64.3245 130.12 64.6506 129.561 65.0699 129.561V142ZM86.1049 99.3011C84.6606 99.3011 83.4493 98.8352 82.4709 97.9035C81.5391 96.9251 81.0733 95.7138 81.0733 94.2695C81.0733 92.7787 81.5391 91.5674 82.4709 90.6356C83.4493 89.7038 84.6606 89.2379 86.1049 89.2379C87.5491 89.2379 88.7372 89.7038 89.6689 90.6356C90.6473 91.5674 91.1365 92.7787 91.1365 94.2695C91.1365 95.7138 90.6473 96.9251 89.6689 97.9035C88.7372 98.8352 87.5491 99.3011 86.1049 99.3011ZM74.5741 99.3011C73.1298 99.3011 71.9185 98.8352 70.9401 97.9035C70.0084 96.9251 69.5425 95.7138 69.5425 94.2695C69.5425 92.7787 70.0084 91.5674 70.9401 90.6356C71.9185 89.7038 73.1298 89.2379 74.5741 89.2379C76.0649 89.2379 77.2762 89.7038 78.208 90.6356C79.1398 91.5674 79.6057 92.7787 79.6057 94.2695C79.6057 95.7138 79.1398 96.9251 78.208 97.9035C77.2762 98.8352 76.0649 99.3011 74.5741 99.3011ZM95.6073 142V129.561H98.7521C100.569 129.561 101.943 129.398 102.875 129.072C103.854 128.745 104.506 128.163 104.832 127.324C105.205 126.439 105.391 125.251 105.391 123.76V81.4808H116.153V123.76C116.153 127.627 115.478 130.912 114.126 133.614C112.775 136.316 110.795 138.389 108.186 139.834C105.624 141.231 102.479 141.953 98.7521 142H95.6073ZM122.792 142C119.065 142 115.897 141.301 113.288 139.903C110.725 138.459 108.769 136.386 107.418 133.684C106.067 130.935 105.391 127.627 105.391 123.76H116.153C116.153 125.251 116.316 126.439 116.642 127.324C117.015 128.163 117.667 128.745 118.599 129.072C119.577 129.398 120.975 129.561 122.792 129.561H124.399V142H122.792ZM124.399 142V129.561C124.865 129.561 125.215 130.12 125.448 131.238C125.681 132.356 125.797 133.847 125.797 135.71C125.797 137.621 125.681 139.158 125.448 140.323C125.215 141.441 124.865 142 124.399 142ZM95.6073 142C95.188 142 94.8619 141.441 94.629 140.323C94.3494 139.158 94.2097 137.621 94.2097 135.71C94.2097 133.847 94.3494 132.356 94.629 131.238C94.8619 130.12 95.188 129.561 95.6073 129.561V142ZM135.059 106.15H145.751V142H124.507V129.561H135.059V106.15ZM124.507 142C124.088 142 123.761 141.441 123.528 140.323C123.249 139.158 123.109 137.621 123.109 135.71C123.109 133.847 123.249 132.356 123.528 131.238C123.761 130.12 124.088 129.561 124.507 129.561V142ZM143.375 96.0865C140.161 96.0865 137.528 95.4808 135.479 94.2695C133.475 93.0116 132.474 91.1946 132.474 88.8186C132.474 87.1414 132.939 85.6971 133.871 84.4858C134.85 83.2279 136.131 82.2728 137.715 81.6206C139.299 80.9683 140.976 80.6422 142.746 80.6422C143.865 80.6422 144.936 80.7587 145.961 80.9916C147.033 81.2246 148.034 81.5973 148.966 82.1098L146.66 87.2812C146.147 87.188 145.588 87.0948 144.983 87.0016C144.377 86.9084 143.818 86.8619 143.306 86.8619C141.675 86.8619 140.37 87.1181 139.392 87.6306C138.414 88.0965 137.924 88.6322 137.924 89.2379C137.924 89.797 138.414 90.3327 139.392 90.8452C140.37 91.3111 141.698 91.5441 143.375 91.5441V96.0865ZM130.866 97.9035V91.5441H150.014V97.9035H130.866ZM165.918 142V129.561H174.094V142H165.918ZM155.575 142V81.4808H166.337V142H155.575ZM174.094 142V129.561C174.513 129.561 174.839 130.12 175.072 131.238C175.352 132.356 175.492 133.847 175.492 135.71C175.492 137.621 175.352 139.158 175.072 140.323C174.839 141.441 174.513 142 174.094 142ZM202.138 138.715C198.178 138.715 194.544 138.156 191.236 137.038C187.928 135.92 185.296 134.173 183.339 131.797C181.383 129.421 180.404 126.369 180.404 122.642C180.404 119.661 180.987 117.052 182.151 114.815C183.363 112.579 184.97 110.715 186.973 109.225C188.977 107.734 191.26 106.616 193.822 105.87C196.431 105.125 199.156 104.752 201.998 104.752C204.235 104.752 206.494 105.008 208.777 105.521C211.106 106.033 213.226 106.779 215.136 107.757L210.384 118.17C209.173 117.844 207.799 117.611 206.261 117.471C204.724 117.285 203.303 117.191 201.998 117.191C198.411 117.191 195.709 117.844 193.892 119.148C192.075 120.406 191.166 121.99 191.166 123.9C191.166 125.018 191.492 126.02 192.145 126.905C192.844 127.744 194.008 128.396 195.639 128.862C197.269 129.328 199.436 129.561 202.138 129.561V138.715ZM174.185 142V129.561H215.905V142H174.185ZM174.185 142C173.765 142 173.439 141.441 173.206 140.323C172.927 139.158 172.787 137.621 172.787 135.71C172.787 133.847 172.927 132.356 173.206 131.238C173.439 130.12 173.765 129.561 174.185 129.561V142Z" fill="#0C6CCC"/>
</g>
<path fill-rule="evenodd" clip-rule="evenodd" d="M315.736 21.5256C307.416 27.3486 299.893 34.2332 293.362 41.9832C320.05 39.5031 353.957 43.5528 393.322 63.2542C435.359 84.292 469.209 85.0033 492.768 80.4549C490.63 73.9768 487.938 67.7508 484.751 61.8322C457.783 64.6792 423.211 60.9108 382.92 40.7467C357.334 27.942 334.781 22.6673 315.736 21.5256ZM468.998 39.3886C447.701 15.5717 416.752 0.582977 382.306 0.582977C372.19 0.582977 362.375 1.87583 353.018 4.3053C365.691 7.76641 379.153 12.83 393.322 19.9214C422.821 34.6846 448.289 39.4381 468.998 39.3886ZM497.804 103.193C469.344 108.819 430.043 107.663 382.92 84.0795C338.865 62.0313 303.801 62.3089 280.152 67.5692C278.932 67.8405 277.74 68.1257 276.577 68.4226C273.481 75.1625 271.009 82.25 269.236 89.6099C271.13 89.1035 273.087 88.6221 275.106 88.1727C303.796 81.7913 344.332 82.0684 393.322 106.587C437.378 128.635 472.442 128.358 496.09 123.097C496.9 122.917 497.699 122.731 498.484 122.539C498.57 120.704 498.613 118.857 498.613 117C498.613 112.329 498.339 107.721 497.804 103.193ZM494.687 147.107C466.502 152.039 428.346 150.146 382.92 127.412C338.865 105.364 303.801 105.642 280.152 110.902C274.903 112.069 270.181 113.491 266.015 114.992C266.004 115.66 265.998 116.329 265.998 117C265.998 181.295 318.071 233.417 382.306 233.417C436.139 233.417 481.43 196.809 494.687 147.107Z" fill="#0C6CCC"/>
<defs>
<filter id="filter0_i_58_744" x="4.35538" y="78.6422" width="211.55" height="104.24" filterUnits="userSpaceOnUse" color-interpolation-filters="sRGB">
<feFlood flood-opacity="0" result="BackgroundImageFix"/>
<feBlend mode="normal" in="SourceGraphic" in2="BackgroundImageFix" result="shape"/>
<feColorMatrix in="SourceAlpha" type="matrix" values="0 0 0 0 0 0 0 0 0 0 0 0 0 0 0 0 0 0 127 0" result="hardAlpha"/>
<feOffset dy="-6"/>
<feGaussianBlur stdDeviation="1"/>
<feComposite in2="hardAlpha" operator="arithmetic" k2="-1" k3="1"/>
<feColorMatrix type="matrix" values="0 0 0 0 0 0 0 0 0 0 0 0 0 0 0 0 0 0 0.22 0"/>
<feBlend mode="normal" in2="shape" result="effect1_innerShadow_58_744"/>
</filter>
</defs>
</svg>
