<svg version="1.2" xmlns="http://www.w3.org/2000/svg" viewBox="0 0 889 902" width="889" height="902">
	<title>2651441_374519-PC5QK7-30-ai</title>
	<style>
		.s0 { fill: #f5b2bc } 
		.s1 { fill: #5e8ebf } 
		.s2 { fill: #fef3f7 } 
		.s3 { fill: #ffcc63 } 
		.s4 { fill: #ffc142 } 
		.s5 { fill: #ffffff } 
	</style>
	<g id="OBJECTS">
		<g id="&lt;Group&gt;">
			<g id="&lt;Group&gt;">
				<g id="&lt;Group&gt;">
					<path id="&lt;Path&gt;" class="s0" d="m555.5 175.4c2.2 5 38.7 4.1 36.9-6.5-2.1-12.5-38 2.5-36.9 6.5z"/>
				</g>
				<g id="&lt;Group&gt;">
					<path id="&lt;Path&gt;" class="s0" d="m549.7 168.5c6.2 2.4 36.9-29.1 26.5-36.7-12.3-9.1-30.8 34.1-26.5 36.7z"/>
				</g>
				<g id="&lt;Group&gt;">
					<path id="&lt;Path&gt;" class="s0" d="m556.2 314.8c5.1-4.7-10.6-48.3-22.7-41.9-14.2 7.5 18.3 44.8 22.7 41.9z"/>
				</g>
				<g id="&lt;Group&gt;">
					<path id="&lt;Path&gt;" class="s0" d="m669.9 238.6c6.6 2.2 37.2-32.6 25.8-40.1-13.4-8.9-30.5 37.6-25.8 40.1z"/>
				</g>
				<g id="&lt;Group&gt;">
					<path id="&lt;Path&gt;" class="s0" d="m609.2 386.3c3.8 4 38-8.6 32.9-18.1-6-11.1-35.2 14.6-32.9 18.1z"/>
				</g>
				<g id="&lt;Group&gt;">
					<path id="&lt;Path&gt;" class="s0" d="m721 467.1c3.4-4.3-14.1-36.3-22.7-29.8-10.1 7.5 19.6 32.6 22.7 29.8z"/>
				</g>
				<g id="&lt;Group&gt;">
					<path id="&lt;Path&gt;" class="s0" d="m642.8 519.7c-5.3 0.9-13.5 36.5-2.8 37.4 12.6 1.1 7-37.4 2.8-37.4z"/>
				</g>
				<g id="&lt;Group&gt;">
					<path id="&lt;Path&gt;" class="s0" d="m381.1 304.9c2.8-4.7-18.4-34.4-26.2-27-9.1 8.7 23.4 30.1 26.2 27z"/>
				</g>
				<g id="&lt;Group&gt;">
					<g id="&lt;Group&gt;">
						<path id="&lt;Path&gt;" class="s0" d="m388.6 402.5c-0.9-5.3-36.5-13.4-37.4-2.7-1.1 12.6 37.4 6.9 37.4 2.7z"/>
					</g>
					<g id="&lt;Group&gt;">
						<path id="&lt;Path&gt;" class="s0" d="m386.7 402.8c1.9-3.2-12.4-23.2-17.6-18.2-6.2 5.9 15.7 20.3 17.6 18.2z"/>
					</g>
				</g>
				<g id="&lt;Group&gt;">
					<g id="&lt;Group&gt;">
						<path id="&lt;Path&gt;" class="s0" d="m732.7 470.8c5.3 1.4 27.4-27.6 18.1-32.8-11-6.3-21.9 31.1-18.1 32.8z"/>
					</g>
					<g id="&lt;Group&gt;">
						<path id="&lt;Path&gt;" class="s0" d="m733.3 469c2 3 26.2-1.6 23.8-8.5-2.7-8.1-25 5.9-23.8 8.5z"/>
					</g>
				</g>
				<g id="&lt;Group&gt;">
					<path id="&lt;Path&gt;" class="s0" d="m203 379.8c7.6-0.8 22.8-49.3 8.1-51.8-17.5-2.9-13.9 51.3-8.1 51.8z"/>
				</g>
				<g id="&lt;Group&gt;">
					<path id="&lt;Path&gt;" class="s0" d="m262.8 544.9c-6 1-15.5 41-3.4 42.1 14.2 1.3 8.1-42.1 3.4-42.1z"/>
				</g>
				<g id="&lt;Group&gt;">
					<path id="&lt;Path&gt;" class="s0" d="m142.6 520.5c2.4-7.4-37.4-41.3-45.6-28.4-9.7 15.3 42.9 33.8 45.6 28.4z"/>
				</g>
				<g id="&lt;Group&gt;">
					<path id="&lt;Path&gt;" class="s0" d="m164.2 541.7c-5.4-0.3-21 32.2-10.9 35.4 11.9 3.8 15-34.5 10.9-35.4z"/>
				</g>
				<g id="&lt;Group&gt;">
					<path id="&lt;Path&gt;" class="s0" d="m332.1 461.8c5.3 0.6 23-30.9 13.1-34.7-11.7-4.6-17.1 33.5-13.1 34.6z"/>
				</g>
				<g id="&lt;Group&gt;">
					<path id="&lt;Path&gt;" class="s0" d="m453.6 247.5c4.8 2.6 33.3-20.2 25.5-27.6-9.2-8.7-28.8 25-25.5 27.6z"/>
				</g>
				<g id="&lt;Group&gt;">
					<path id="&lt;Path&gt;" class="s0" d="m432.8 232.5c2.8-4.7-18.2-34.5-26-27.1-9.2 8.7 23.2 30.2 26 27.1z"/>
				</g>
				<g id="&lt;Group&gt;">
					<path id="&lt;Path&gt;" class="s0" d="m611.6 360.2c6.2 2.5 37.6-29.5 27-37.4-12.5-9.2-31.4 34.8-27 37.4z"/>
				</g>
				<g id="&lt;Group&gt;">
					<g id="&lt;Group&gt;">
						<g id="&lt;Group&gt;">
							<g id="&lt;Group&gt;">
								<path id="&lt;Path&gt;" class="s1" d="m517.6 786.3c0.2 3.6 0.8 9.4 1.3 12.9 0 0 6.1 36.8 41.6 40.3 33.6 3.3 68.5 15.6 42.9 15.6-25.6 0-65.8-5.6-52.4 6.2 11.2 9.9 27.1 16.7 19.7 19.9-10.2 4.4-61-21-102.7-20.7-33.9 0.3-74.9 31-84.3 30.5-9.4-0.4 9.3-21.2 12.2-25.9 2.9-4.7-12-3.5-42.9-4.3-36.4-0.9-51.7-6.1-4.5-10.1 45.8-3.8 61.3-42.1 61.4-58.5 0-29.8 0.8-164.9-9-200.3-17.4-62.6-122-156.4-267.9-41.9-10.6 8.3-22.6 13.8-4.2-4.2 25.6-25.1 68.7-56.7 128.1-63.9 101.8-12.5 163.5 44.7 163.5 44.7 2.6 2.4 4.7 1.5 4.7-2 0 0 0.1-179.9-174.9-305.3-11.7-8.4-20.4-20.8 2.8-7.1 55.5 32.9 154.9 111 192.4 262.8 3.9 15.9 10.2 33.2 8.8-1.3-2.3-56.1-0.8-158.7 51.2-310.9 6.2-18.3 13.9-34 5.3 2.3-15.5 65.5-36.7 174.4-33.9 271.4 0.4 12.2 5.7 24.2 13.1 6.6 19.4-45.9 65.4-133.4 144.9-164.4 13.9-5.4 29-6.3 6.4 7.7-47.4 29.1-124.6 100.6-149.6 264.3-1.4 8.7-0.9 18.1 6.2 5.8 21.4-36.9 83.5-107.1 237.2-77.5 20.7 3.9 39.8 11.9 1.7 9.3-85.4-6-224.1 3.6-224.1 128.6 0 57.6 5 169.4 5 169.4z"/>
							</g>
							<g id="&lt;Group&gt;">
								<path id="&lt;Path&gt;" class="s1" d="m567.1 328.9c0 0 11.3-55.1 48.5-96.3 12.4-13.7 25.9-20.5 7.3 5.9-13.5 19.1-30.9 47.7-34.2 80"/>
							</g>
							<g id="&lt;Group&gt;">
								<path id="&lt;Path&gt;" class="s1" d="m593.5 498.4c0 0 60.3-7.9 119.9 49.9 8.6 8.3 19.3 11.3 3.2-8.8-16.2-20.1-42.1-42.5-81.6-51.7"/>
							</g>
							<g id="&lt;Group&gt;">
								<path id="&lt;Path&gt;" class="s1" d="m474.9 340.5c0 0-49.4-74.5-36.2-155.9 2.1-12.6 7.2-22.8 6.5 0.6-1.2 35.4 4.7 90 41.4 140.5"/>
							</g>
							<g id="&lt;Group&gt;">
								<path id="&lt;Path&gt;" class="s1" d="m499.4 207.2c0 0 16.2-3.8 33.9-18 6.9-5.6 22.6-22.8 10.7-4.4-9.2 14.3-24.4 30.3-49.5 41.7"/>
							</g>
							<g id="&lt;Group&gt;">
								<path id="&lt;Path&gt;" class="s1" d="m393.4 350.3c0 0 10.5-31.4-2-71.5-4-12.7-13.5-23-10.1-1.7 3.3 21.3 3.6 46.9-8.6 63.8"/>
							</g>
							<g id="&lt;Group&gt;">
								<path id="&lt;Path&gt;" class="s1" d="m279.2 234.6c0 0-3.1-13.7-7.6-27.7-2.2-6.8-1.5-10.6 4.8 2.1 4.8 9.5 9.8 21.5 12.6 34"/>
							</g>
							<g id="&lt;Group&gt;">
								<path id="&lt;Path&gt;" class="s1" d="m325.8 496.7c0 0 2.8-70.8-59.1-150.1-10.1-13-22.1-22.9-6.5 3.4 6.3 10.6 12.9 22.8 19.1 36.2 13.9 30.7 25.4 67.7 25.1 106.1"/>
							</g>
							<g id="&lt;Group&gt;">
								<path id="&lt;Path&gt;" class="s1" d="m296.3 432.6c0 0-86.9 11.2-122.8-80-4.1-10.4-9.9-20-4.4 0.3 11 40.6 42.8 100 135.3 92.2"/>
							</g>
							<g id="&lt;Group&gt;">
								<path id="&lt;Path&gt;" class="s1" d="m532.6 398.4c0 0 98.3 47.9 191.3-20.8 10.3-7.6 21.7-12.2 3.5 5.2-34.3 32.7-101.7 73.2-205 33.6"/>
							</g>
							<g id="&lt;Group&gt;">
								<path id="&lt;Path&gt;" class="s1" d="m222.6 496.7c0 0-2.3-13-47.1-36.1-7.9-4-15.7-7.3-2.7 2.2 12.3 9 25.5 21.4 30 35.6"/>
							</g>
							<g id="&lt;Group&gt;">
								<path id="&lt;Path&gt;" class="s1" d="m363 510.5c0 0-96.3-20.7-142.4 55.2-2.2 3.6-3.7 7.3 1.6 1 20.1-23.6 78-74 175.3-17.1"/>
							</g>
							<g id="&lt;Group&gt;">
								<path id="&lt;Path&gt;" class="s1" d="m589 419.4c0 0-3.4-21.5 10.6-45.3 4.5-7.5 12.6-12.4 7.5 1.2-5.2 13.7-9 30.9-3.4 44.7"/>
							</g>
						</g>
					</g>
					<g id="&lt;Group&gt;">
						<path id="&lt;Path&gt;" class="s1" d="m605 248.2c-3.2-8.6-7.6-21.6-3.2-30.2 5.3 7.6 5.3 18.3 14 22.6"/>
					</g>
					<g id="&lt;Group&gt;">
						<path id="&lt;Path&gt;" class="s2" d="m504.1 169.7c56 13.9 62-155.2 62-155.2 0 0-50.6 41-67.3 82.3-14.5 35.7-12.9 62.9 5.3 72.9z"/>
						<g id="&lt;Group&gt;">
							<path id="&lt;Path&gt;" class="s1" d="m537 96c9.7-25.5 19.1-51.2 26.7-77.5-15.1 21-29.5 42.9-40 66.6-10.9 24.8-21.6 55.8-18 83.4q0.2-0.2 0.4-0.3c-0.2-0.2-0.4-0.6-0.1-1 15.4-20.7 21.9-47.3 31-71.2z"/>
							<path id="&lt;Path&gt;" class="s1" d="m508.2 96.7c12-28.9 31.1-54.8 52.2-77.8-13.5 11.8-48.6 44.7-62 77.7-14.4 35.8-12.8 63 5.4 73q0.1 0 0.1 0c-15.1-22.5-5.2-50.1 4.3-72.9z"/>
							<path id="&lt;Path&gt;" class="s1" d="m544.5 113.1c-3.6 13-6.9 25.5-15.5 36.2q-9.9 12.1-22.8 20.8c47.7 7.4 57.7-121.2 59.3-150.1-6 31.2-12.4 62.5-21 93.1z"/>
							<path id="&lt;Path&gt;" class="s1" d="m546.2 100.6c6-23.2 11-46.5 15.6-70-7.3 23.5-15.9 46.5-24.7 69.5-8.5 22.4-14.6 46.8-28.7 66.6 8.9-6.4 17.3-14.3 23-23.6 7.9-12.8 11.1-28.1 14.8-42.5z"/>
							<path id="&lt;Path&gt;" class="s1" d="m519.3 91.4c10-23.7 23.4-45.8 38.2-66.8-18.6 20.8-35.2 43.9-46.4 69.4-9.7 22.2-20.5 50-7.2 72.5-2.6-24.9 5.8-52.6 15.4-75.1z"/>
						</g>
					</g>
					<g id="&lt;Group&gt;">
						<path id="&lt;Path&gt;" class="s2" d="m709.1 539c-39.3 42.3 105.6 129.8 105.6 129.8 0-0.1-11.3-64.3-39.2-98.9-24.2-30-48.8-41.9-66.4-30.9z"/>
						<g id="&lt;Group&gt;">
							<path id="&lt;Path&gt;" class="s1" d="m757.6 603.6c17.6 20.9 35.4 41.7 54.7 61.1-11-23.5-23.1-46.6-38.8-67.3-16.3-21.7-38.2-46.1-64.1-56.3q0.1 0.3 0.1 0.5c0.3-0.1 0.7-0.1 0.9 0.4 10.7 23.5 30.7 42.1 47.2 61.6z"/>
							<path id="&lt;Path&gt;" class="s1" d="m771 578.2c19.4 24.5 32.7 53.8 42.6 83.4-3.8-17.5-15.5-64.2-37.8-91.9-24.2-30.1-48.8-41.9-66.4-30.9q0 0.1-0.1 0.2c27-2.3 46.4 19.8 61.7 39.2z"/>
							<path id="&lt;Path&gt;" class="s1" d="m739 601.9c-9.6-9.5-19-18.4-24.1-31.2q-5.8-14.5-7.1-30c-29.7 38.1 77.9 109.4 102.3 124.8-24.4-20.4-48.5-41.2-71.1-63.6z"/>
							<path id="&lt;Path&gt;" class="s1" d="m749.1 609.5c17.3 16.5 35.3 32.2 53.5 47.6-16.9-17.8-32.9-36.5-48.7-55.3-15.4-18.4-33.8-35.6-44.2-57.5 1.3 10.9 4.1 22.1 9.4 31.6 7.3 13.1 19.2 23.3 30 33.6z"/>
							<path id="&lt;Path&gt;" class="s1" d="m770.2 590.4c15.9 20.3 28.6 42.7 39.8 65.9-9.1-26.3-21.2-52.1-38.1-74.3-14.7-19.3-33.7-42.2-59.8-41.6 22.9 9.9 43.1 30.7 58.1 50z"/>
						</g>
					</g>
					<g id="&lt;Group&gt;">
						<path id="&lt;Path&gt;" class="s2" d="m170 352.2c53.5-21.4-40.2-162.3-40.2-162.3 0 0-17.2 62.9-6.7 106.2 9.1 37.4 26.2 58.6 46.9 56.1z"/>
						<g id="&lt;Group&gt;">
							<path id="&lt;Path&gt;" class="s1" d="m153.7 273.2c-7-26.4-14.3-52.8-23.5-78.6-0.1 25.9 1 52 6.4 77.4 5.5 26.5 14.9 58 33.9 78.2q0.1-0.2 0.2-0.5c-0.3 0-0.7-0.2-0.7-0.7 0.4-25.8-9.8-51.1-16.3-75.8z"/>
							<path id="&lt;Path&gt;" class="s1" d="m130.7 290.5c-7.1-30.5-6.7-62.7-3-93.6-4 17.4-13.3 64.6-5 99.2 9.1 37.5 26.3 58.7 46.9 56.2q0.1-0.1 0.2-0.1c-25.5-9.4-33.5-37.6-39.1-61.7z"/>
							<path id="&lt;Path&gt;" class="s1" d="m169.8 282.6c4.6 12.7 9.3 24.8 8.4 38.5q-0.9 15.6-6.3 30.2c43.1-21.8-23.9-132.1-39.4-156.5 13.3 28.8 26.4 57.9 37.3 87.8z"/>
							<path id="&lt;Path&gt;" class="s1" d="m163.8 271.4c-8.6-22.2-18.2-44.1-28.1-65.9 7.8 23.4 14.2 47.1 20.5 70.9 6.1 23.1 15.4 46.6 15.4 70.8 3.6-10.4 5.8-21.7 5-32.6-1-15-7.4-29.3-12.8-43.2z"/>
							<path id="&lt;Path&gt;" class="s1" d="m136.6 279.8c-5.7-25.2-7.7-50.9-8-76.6-2.9 27.7-2.9 56.2 2.9 83.4 5 23.7 12.5 52.5 36.4 63.1-16.6-18.7-25.9-46.1-31.3-69.9z"/>
						</g>
					</g>
					<g id="&lt;Group&gt;">
						<path id="&lt;Path&gt;" class="s2" d="m386.3 272c39-19.3-39.9-119.7-39.9-119.7 0 0-9.2 48.3 1.3 80.3 9 27.6 23.2 42.5 38.6 39.4z"/>
						<g id="&lt;Group&gt;">
							<path id="&lt;Path&gt;" class="s1" d="m369.3 213.5c-6.8-19.5-13.9-38.9-22.3-57.7 1.5 19.5 3.9 39.1 9.4 57.8 5.7 19.7 14.7 42.8 30.2 56.9q0.1-0.2 0.1-0.4c-0.2 0-0.5-0.1-0.5-0.5-1.3-19.4-10.5-37.9-16.9-56.1z"/>
							<path id="&lt;Path&gt;" class="s1" d="m353.1 227.9c-7.2-22.5-8.8-46.7-7.9-70.3-2 13.4-6.2 49.5 2.2 75 9.1 27.7 23.3 42.6 38.7 39.5q0 0 0.1-0.1c-19.8-5.5-27.5-26.3-33.1-44.1z"/>
							<path id="&lt;Path&gt;" class="s1" d="m382 219.7c4.2 9.2 8.5 18 8.7 28.4q0.2 11.8-3 23.1c31.2-19-25.8-98-39-115.4 11.8 20.9 23.3 42 33.3 63.9z"/>
							<path id="&lt;Path&gt;" class="s1" d="m376.9 211.6c-7.9-16.2-16.4-32.1-25.1-47.9 7.2 17.1 13.5 34.6 19.6 52.1 6 17 14.4 34.1 15.9 52.4 2-8.1 3-16.7 1.8-24.9-1.7-11.2-7.3-21.6-12.2-31.7z"/>
							<path id="&lt;Path&gt;" class="s1" d="m356.9 219.5c-5.8-18.6-8.8-37.8-10.6-57.2-0.5 21 1.1 42.5 7.1 62.6 5.2 17.6 12.6 38.8 31.2 45.4-13.6-13.2-22.2-33.2-27.7-50.8z"/>
						</g>
					</g>
					<g id="&lt;Group&gt;">
						<path id="&lt;Path&gt;" class="s2" d="m254.8 217.9c32.4-29.1-70.6-104.7-70.6-104.7 0 0 4.2 49 22.8 77 16.2 24.2 33.8 34.8 47.8 27.7z"/>
						<g id="&lt;Group&gt;">
							<path id="&lt;Path&gt;" class="s1" d="m222.8 166c-11.8-16.9-23.8-33.7-37-49.6 6.6 18.4 14.2 36.6 24.5 53.2 10.9 17.4 25.7 37.3 44.4 46.7q0-0.2 0-0.4c-0.2 0.1-0.5 0-0.7-0.3-6.4-18.4-20.2-33.8-31.2-49.6z"/>
							<path id="&lt;Path&gt;" class="s1" d="m210.9 184.3c-12.9-19.8-20.9-42.7-26.3-65.7 1.7 13.5 7.3 49.3 22.2 71.7 16.1 24.2 33.8 34.8 47.8 27.7q0 0 0.1-0.1c-20.5-0.1-33.5-18-43.8-33.6z"/>
							<path id="&lt;Path&gt;" class="s1" d="m236.6 168.6c6.6 7.8 13.1 15.1 16 25.1q3.4 11.2 3.3 23c25-26.6-51.1-87.5-68.4-100.8 16.9 17 33.7 34.3 49.1 52.7z"/>
							<path id="&lt;Path&gt;" class="s1" d="m229.5 162.2c-11.9-13.6-24.3-26.6-37-39.5 11.6 14.6 22.3 29.7 32.9 44.9 10.3 14.9 23 29.1 29.3 46.3-0.2-8.3-1.5-16.9-4.9-24.4-4.6-10.4-12.8-18.9-20.3-27.3z"/>
							<path id="&lt;Path&gt;" class="s1" d="m212.4 175.1c-10.6-16.4-18.6-34-25.5-52.2 5.1 20.4 12.5 40.6 23.6 58.4 9.7 15.5 22.5 34 42.2 35.3-16.6-9-30.3-26-40.3-41.5z"/>
						</g>
					</g>
					<g id="&lt;Group&gt;">
						<path id="&lt;Path&gt;" class="s2" d="m739.1 384.4c28.2 33.1 106.5-67.8 106.5-67.8 0 0-49.1 2.8-77.6 20.7-24.6 15.5-35.6 32.9-28.9 47.1z"/>
						<g id="&lt;Group&gt;">
							<path id="&lt;Path&gt;" class="s1" d="m791.8 353.7c17.2-11.3 34.3-22.9 50.6-35.6-18.6 6.1-37 13.2-53.9 23.1-17.7 10.3-37.9 24.6-47.8 43.1q0.1 0 0.3 0c0-0.2 0-0.5 0.4-0.6 18.6-6 34.3-19.3 50.4-30z"/>
							<path id="&lt;Path&gt;" class="s1" d="m773.9 341.4c20-12.4 43.2-19.8 66.3-24.6-13.5 1.3-49.5 6-72.3 20.3-24.6 15.5-35.7 32.9-28.9 47q0 0.1 0.1 0.1c0.6-20.5 18.9-33 34.8-42.8z"/>
							<path id="&lt;Path&gt;" class="s1" d="m788.8 367.5c-7.9 6.4-15.4 12.6-25.5 15.3q-11.3 3.1-23.1 2.7c26 25.6 88.9-48.8 102.6-65.7-17.5 16.4-35.1 32.8-54 47.7z"/>
							<path id="&lt;Path&gt;" class="s1" d="m795.4 360.6c13.9-11.6 27.3-23.7 40.4-36-14.8 11.2-30.2 21.5-45.7 31.7-15.1 9.9-29.7 22.2-47 28.1 8.3 0 16.9-1.1 24.5-4.3 10.5-4.3 19.2-12.3 27.8-19.5z"/>
							<path id="&lt;Path&gt;" class="s1" d="m782.9 343.1c16.7-10.1 34.6-17.7 53-24.1-20.6 4.6-41 11.4-59.1 22.1-15.7 9.3-34.6 21.5-36.4 41.2 9.4-16.4 26.8-29.6 42.5-39.2z"/>
						</g>
					</g>
					<g id="&lt;Group&gt;">
						<path id="&lt;Path&gt;" class="s2" d="m133.6 549.7c-17.2-40-121.7 33.5-121.7 33.5 0 0 47.8 11.7 80.2 3 28.1-7.6 43.8-21 41.5-36.5z"/>
						<g id="&lt;Group&gt;">
							<path id="&lt;Path&gt;" class="s1" d="m74.3 563.5c-19.8 5.8-39.6 11.8-58.9 19.3 19.6-0.5 39.3-1.8 58.3-6.3 19.9-4.8 43.5-12.5 58.4-27.2q-0.2-0.1-0.4-0.1c0 0.2-0.1 0.5-0.5 0.5-19.5 0.2-38.4 8.4-56.9 13.8z"/>
							<path id="&lt;Path&gt;" class="s1" d="m87.8 580.5c-22.9 6-47.2 6.3-70.6 4.1 13.2 2.7 49 8.8 75 1.8 28.1-7.6 43.7-21 41.5-36.5q-0.1 0-0.1-0.1c-6.6 19.4-27.8 26-45.8 30.7z"/>
							<path id="&lt;Path&gt;" class="s1" d="m81.1 551.2c9.5-3.7 18.5-7.5 28.9-7.2q11.7 0.4 22.8 4.3c-17.2-32.2-99.2 20.5-117.3 32.7 21.5-10.6 43.2-21 65.6-29.8z"/>
							<path id="&lt;Path&gt;" class="s1" d="m72.8 555.9c-16.7 7-33 14.6-49.2 22.5 17.4-6.3 35.2-11.6 53-16.8 17.4-5.1 34.9-12.6 53.2-13.1-7.9-2.4-16.5-3.9-24.7-3.1-11.3 1.1-22 6.2-32.3 10.5z"/>
							<path id="&lt;Path&gt;" class="s1" d="m79.6 576.3c-18.9 4.8-38.3 6.8-57.7 7.5 21 1.7 42.5 1.1 62.9-3.8 17.8-4.3 39.4-10.5 46.9-28.7-13.8 12.9-34.3 20.5-52.1 25z"/>
						</g>
					</g>
					<g id="&lt;Group&gt;">
						<path id="&lt;Path&gt;" class="s2" d="m649.4 276.7c9.5 43.2 127.9-10.1 127.9-10.1 0 0-45.5-20.8-79.5-18.3-29.5 2.1-47.7 12.5-48.4 28.4z"/>
						<g id="&lt;Group&gt;">
							<path id="&lt;Path&gt;" class="s1" d="m711.3 274.3c20.8-2 41.7-4.2 62.3-7.9-19.5-3.4-39.5-5.8-59.3-4.9-20.8 0.9-45.8 4.1-63.5 15.9q0.2 0.1 0.4 0.2c0-0.3 0.2-0.5 0.6-0.4 19.5 3.5 39.9-1 59.5-2.9z"/>
							<path id="&lt;Path&gt;" class="s1" d="m701 254.7c24-1.5 48.3 2.8 71.3 9.5-12.7-5.3-47.3-18.2-74.5-16.2-29.5 2.2-47.7 12.5-48.4 28.4q0 0.1 0 0.2c10.3-18.1 32.7-20.7 51.6-21.9z"/>
							<path id="&lt;Path&gt;" class="s1" d="m702.1 285.3c-10.2 1.9-19.9 3.9-30.2 1.6q-11.7-2.7-22-8.6c11.1 35.3 102.9-1.5 123.3-10.2-23.5 6.5-47.1 12.7-71.1 17.2z"/>
							<path id="&lt;Path&gt;" class="s1" d="m711.3 282.2c17.9-3.8 35.7-8.3 53.4-13.1-18.6 3-37.4 4.9-56.2 6.7-18.3 1.7-37.2 5.8-55.5 2.8 7.4 4 15.7 7.1 24 7.9 11.5 1.1 23.1-2 34.3-4.3z"/>
							<path id="&lt;Path&gt;" class="s1" d="m708.4 260.5c19.8-1.1 39.5 0.6 59 3.6-20.6-5.7-42.2-9.3-63.5-8.3-18.6 0.9-41.3 2.9-52.3 19.7 16.2-10.2 38.1-13.9 56.8-15z"/>
						</g>
					</g>
					<g id="&lt;Group&gt;">
						<path id="&lt;Path&gt;" class="s2" d="m232.4 557.7c-37.3-23.8-83.2 97.6-83.2 97.6 0 0 46.8-17.4 69.1-43.2 19.4-22.4 24.9-42.6 14.1-54.4z"/>
						<g id="&lt;Group&gt;">
							<path id="&lt;Path&gt;" class="s1" d="m190.4 603.2c-13.3 16.2-26.5 32.5-38.5 49.7 16.2-11.5 32-23.9 45.4-38.5 14.1-15.3 29.5-35.2 33.6-56.1q-0.2 0-0.4 0.1c0.2 0.2 0.2 0.5-0.1 0.7-16.3 11.3-27.5 29-40 44.1z"/>
							<path id="&lt;Path&gt;" class="s1" d="m211.5 609.8c-15.9 18-36.1 32.2-57.1 43.7 12.7-5.3 46.3-20.6 64.1-41.3 19.3-22.4 24.9-42.5 14.1-54.3q0 0-0.1-0.1c5.5 20.1-8.5 37.8-21 52z"/>
							<path id="&lt;Path&gt;" class="s1" d="m189.1 588.9c5.9-8.5 11.3-16.8 20.2-22.4q10.1-6.4 21.7-9.5c-32.9-17.2-71.8 73.8-80 94.4 12-21.2 24.3-42.3 38.1-62.5z"/>
							<path id="&lt;Path&gt;" class="s1" d="m184.8 597.6c-10 15.4-19.4 31.1-28.5 47 11-15.3 23-29.9 35-44.4 11.7-14.2 22.2-30.4 37.3-41.3-8.1 2.5-16.1 6.1-22.6 11.5-8.9 7.3-15 17.7-21.2 27.2z"/>
							<path id="&lt;Path&gt;" class="s1" d="m202.1 610.9c-13.1 14.8-28.2 27.5-44.2 39.2 18.6-10.6 36.4-23.3 50.8-39.1 12.5-13.7 27.2-31.2 23.1-50.9-4.3 18.7-17.2 36.8-29.7 50.8z"/>
						</g>
					</g>
					<g id="&lt;Group&gt;">
						<g id="&lt;Group&gt;">
							<path id="&lt;Path&gt;" class="s2" d="m58.8 351.1c4.9 33.1 34.5 47.3 43.2 52 28.4 15.1 74 11.7 92.5 1.4-18.8-24.1-43-29.1-80-33.7-12.1-1.5-34.5-9.4-55.7-19.7z"/>
						</g>
						<g id="&lt;Group&gt;">
							<path id="&lt;Path&gt;" class="s1" d="m189.3 403.9c-42.6-6.6-86.8-14.1-119.9-42.9q1.5 1 3.1 1.9c11.9 8.1 24.4 15.1 38.9 18.1 25.9 5.4 55.4 7.8 77.9 22.9z"/>
							<path id="&lt;Path&gt;" class="s1" d="m58.7 353.1q0.3 0.2 0.6 0.4 0.4 0.3 0.7 0.6c33.1 34.9 80.2 43.6 125.7 50.8-23.3 1.3-46.7-2.1-68.6-10.5-21.7-8.2-49.6-19-59.1-42q0.3 0.2 0.5 0.4 0 0.2 0.2 0.3z"/>
							<path id="&lt;Path&gt;" class="s1" d="m116.9 380.6c-10.7-2.1-20.1-5.7-29-10.4 9.1 3.4 18.7 5.5 28.9 6.7 26.3 3 50.9 9.2 72.3 25.1-21.1-13.6-48.2-16.8-72.2-21.4z"/>
							<path id="&lt;Path&gt;" class="s1" d="m116.4 395.8c21.6 7.8 43.8 11.6 66.6 10.8-21.3 3-43 2.2-63.8-3.8-23.8-6.9-49.4-18.9-59.1-43.1 11.8 18.8 36.5 28.9 56.3 36.1z"/>
							<path id="&lt;Path&gt;" class="s1" d="m130.8 377.1c-21.3-2.9-40.6-5.9-58.2-16.1-4-2.7-8-5.5-12.1-8.5q-0.6-0.5-1.2-1c20.4 9.7 41.5 17 53.1 18.5 35.6 4.4 59.4 9.2 77.9 31-17.3-13-38-21.1-59.5-23.9z"/>
							<path id="&lt;Path&gt;" class="s1" d="m113.1 402.5c22 6.9 44.5 8.8 67.2 6-22 6.1-57 6.2-80.3-6.3-7.3-3.8-28.7-14.2-38.7-36.4 10.3 19.1 31.3 30.4 51.8 36.7z"/>
							<path id="&lt;Path&gt;" class="s1" d="m57 351.5q0 0 0 0 0 0 0 0 0 0 0 0z"/>
						</g>
					</g>
					<g id="&lt;Group&gt;">
						<g id="&lt;Group&gt;">
							<path id="&lt;Path&gt;" class="s2" d="m752.5 487.8c29.2-16.5 58.5-1.8 67.6 2.3 29.3 13.1 54.6 51.2 57.8 72.2-30.6-0.1-49.3-16.2-75.7-42.6-8.6-8.6-28.6-21.5-49.7-31.9z"/>
						</g>
						<g id="&lt;Group&gt;">
							<path id="&lt;Path&gt;" class="s1" d="m874.2 558.5c-31.3-29.5-64.3-59.9-107.3-68.4q1.7 0.6 3.3 1.3c13.8 4.5 27 10 38.2 19.6 20.1 17.2 40.1 39 65.8 47.5z"/>
							<path id="&lt;Path&gt;" class="s1" d="m754.1 486.5q0.3 0.1 0.7 0.2 0.4 0.1 0.9 0.2c47.8 4.8 83.6 36.6 117.1 68.2-13.2-19.3-30.2-35.6-50.3-47.8-19.8-12.1-45.5-27.6-69.4-20.9q0.3 0 0.6 0.1 0.1-0.1 0.4 0z"/>
							<path id="&lt;Path&gt;" class="s1" d="m811.4 515.6c-8.1-7.1-16.7-12.3-25.9-16.5 8.2 5.1 15.8 11.4 22.9 18.7 18.6 18.9 38.5 34.6 64.2 41.7-23.7-8.3-42.7-27.7-61.2-43.9z"/>
							<path id="&lt;Path&gt;" class="s1" d="m823.2 505.9c19.4 12.3 36 27.5 49.3 46-10.7-18.7-24.6-35.4-42.1-48.1-20-14.6-45.2-27.5-70.3-20.3 22.1-2.2 45.3 11.2 63.1 22.4z"/>
							<path id="&lt;Path&gt;" class="s1" d="m817.2 528.8c-15.3-15.1-29.6-28.5-48.3-36.2-4.6-1.5-9.3-2.9-14.1-4.3q-0.8-0.2-1.6-0.3c20.1 10.1 38.9 22.3 47.1 30.6 25.4 25.4 43.7 41.2 72.3 42.5-20.9-5.7-40-17.1-55.4-32.3z"/>
							<path id="&lt;Path&gt;" class="s1" d="m826.5 499.1c18.9 13.3 34.1 29.9 45.8 49.5-8.6-21.1-30-48.8-54.1-59.6-7.5-3.4-28.8-14-52.5-8.3 21.5-3.5 43.2 6.2 60.8 18.4z"/>
							<path id="&lt;Path&gt;" class="s1" d="m751.7 486.1q0 0 0 0 0 0 0 0 0 0 0 0z"/>
						</g>
					</g>
					<g id="&lt;Group&gt;">
						<g id="&lt;Group&gt;">
							<path id="&lt;Path&gt;" class="s3" d="m439.5 86.8c-24.2-5.5-52.2 3.4-66.3 35-9.7 21.9-2.9 67.2 32 76.4 35.7 10 65-6.8 73.8-40.8 8.7-33.5-9.5-63.8-39.5-70.6z"/>
						</g>
						<g id="&lt;Group&gt;">
							<path id="&lt;Path&gt;" class="s4" d="m425.1 192.8c-5.7 0-11.6-0.9-17.7-2.6q-0.1 0-0.1 0c-13.4-3.5-20.6-13.3-24.2-21-7.5-15.5-6.8-33.9-2.3-44 12.2-27.5 33.6-31.6 45.2-31.6 3.9 0 7.8 0.4 11.7 1.3 11.9 2.7 21.9 9.9 28.2 20.2 7 11.5 8.8 25.8 5.1 40.2-6.1 23.5-23.2 37.5-45.9 37.5q0 0 0 0z"/>
						</g>
						<g id="&lt;Group&gt;">
							<path id="&lt;Path&gt;" class="s5" d="m435.9 101.3c-18.1-4.1-38.9 2.5-49.4 26-7.2 16.3-2.2 50 23.8 56.8 26.6 7.5 48.4-5.1 54.9-30.4 6.5-24.9-7.1-47.4-29.3-52.4z"/>
						</g>
					</g>
					<g id="&lt;Group&gt;">
						<g id="&lt;Group&gt;">
							<path id="&lt;Path&gt;" class="s3" d="m717.7 324.1c-24.3-5.5-52.3 3.4-66.3 35-9.8 21.9-3 67.1 31.9 76.3 35.7 10.1 65-6.8 73.8-40.8 8.7-33.4-9.5-63.7-39.4-70.5z"/>
						</g>
						<g id="&lt;Group&gt;">
							<path id="&lt;Path&gt;" class="s4" d="m703.3 430.1c-5.7 0-11.7-0.9-17.8-2.6q0 0-0.1-0.1c-13.4-3.5-20.5-13.3-24.2-20.9-7.4-15.5-6.8-33.9-2.3-44.1 12.2-27.5 33.6-31.6 45.3-31.6 3.9 0 7.8 0.5 11.6 1.4 12 2.7 22 9.8 28.3 20.2 7 11.5 8.8 25.7 5 40.1-6 23.5-23.2 37.6-45.8 37.6z"/>
						</g>
						<g id="&lt;Group&gt;">
							<path id="&lt;Path&gt;" class="s5" d="m714 338.5c-18-4.1-38.9 2.5-49.4 26.1-7.2 16.3-2.1 49.9 23.8 56.8 26.6 7.5 48.4-5.1 55-30.4 6.4-24.9-7.1-47.4-29.4-52.5z"/>
						</g>
					</g>
					<g id="&lt;Group&gt;">
						<g id="&lt;Group&gt;">
							<path id="&lt;Path&gt;" class="s3" d="m213.5 431.7c-22.8-5.1-49.2 3.2-62.4 33-9.2 20.6-2.7 63.2 30.1 71.8 33.6 9.5 61.2-6.3 69.5-38.4 8.2-31.5-9-60-37.2-66.4z"/>
						</g>
						<g id="&lt;Group&gt;">
							<path id="&lt;Path&gt;" class="s4" d="m200 531.5c-5.4 0-11-0.8-16.7-2.4q-0.1-0.1-0.2-0.1c-12.5-3.3-19.3-12.5-22.7-19.7-7-14.6-6.4-31.9-2.2-41.5 11.5-25.9 31.6-29.7 42.6-29.7 3.7 0 7.4 0.4 11 1.2 11.2 2.6 20.7 9.3 26.6 19.1 6.6 10.8 8.3 24.2 4.8 37.8-5.8 22.1-21.9 35.3-43.2 35.3q0 0 0 0z"/>
						</g>
						<g id="&lt;Group&gt;">
							<path id="&lt;Path&gt;" class="s5" d="m210.1 445.3c-17-3.8-36.6 2.4-46.5 24.5-6.8 15.4-2 47.1 22.4 53.5 25 7.1 45.6-4.8 51.7-28.6 6.1-23.4-6.7-44.6-27.6-49.4z"/>
						</g>
					</g>
					<g id="&lt;Group&gt;">
						<g id="&lt;Group&gt;">
							<path id="&lt;Path&gt;" class="s3" d="m303.6 308.2c-24.2-5.5-52.2 3.4-66.3 35-9.7 21.9-2.9 67.2 31.9 76.3 35.8 10.1 65.1-6.7 73.9-40.8 8.7-33.4-9.5-63.7-39.5-70.5z"/>
						</g>
						<g id="&lt;Group&gt;">
							<path id="&lt;Path&gt;" class="s4" d="m289.2 414.2c-5.7 0-11.6-0.9-17.7-2.6q-0.1 0-0.2 0c-13.3-3.5-20.5-13.4-24.1-21-7.5-15.5-6.8-33.9-2.3-44 12.2-27.5 33.6-31.6 45.2-31.6 3.9 0 7.8 0.4 11.7 1.3 11.9 2.7 21.9 9.9 28.2 20.2 7 11.5 8.8 25.8 5.1 40.2-6.1 23.5-23.2 37.5-45.9 37.5q0 0 0 0z"/>
						</g>
						<g id="&lt;Group&gt;">
							<path id="&lt;Path&gt;" class="s5" d="m300 322.6c-18.1-4-38.9 2.5-49.4 26.1-7.2 16.3-2.2 50 23.8 56.8 26.6 7.5 48.4-5.1 54.9-30.4 6.5-24.9-7.1-47.4-29.3-52.5z"/>
						</g>
					</g>
					<g id="&lt;Group&gt;">
						<g id="&lt;Group&gt;">
							<path id="&lt;Path&gt;" class="s3" d="m423.3 422.7c-24.2-5.5-52.2 3.4-66.3 35-9.7 21.9-2.9 67.2 32 76.4 35.7 10 65-6.8 73.8-40.9 8.7-33.4-9.5-63.7-39.5-70.5z"/>
						</g>
						<g id="&lt;Group&gt;">
							<path id="&lt;Path&gt;" class="s4" d="m408.9 528.7c-5.6 0-11.6-0.9-17.7-2.6q-0.1 0-0.1 0c-13.4-3.5-20.5-13.4-24.2-21-7.5-15.5-6.8-33.9-2.3-44 12.2-27.5 33.6-31.6 45.2-31.6 3.9 0 7.9 0.4 11.7 1.3 11.9 2.7 22 9.9 28.3 20.2 7 11.5 8.8 25.8 5 40.2-6.1 23.5-23.2 37.5-45.9 37.5q0 0 0 0z"/>
						</g>
						<g id="&lt;Group&gt;">
							<path id="&lt;Path&gt;" class="s5" d="m419.7 437.1c-18.1-4-38.9 2.5-49.4 26.1-7.2 16.3-2.1 50 23.8 56.8 26.6 7.5 48.4-5.1 54.9-30.4 6.5-24.9-7.1-47.4-29.3-52.5z"/>
						</g>
					</g>
					<g id="&lt;Group&gt;">
						<g id="&lt;Group&gt;">
							<path id="&lt;Path&gt;" class="s3" d="m723.4 499.5c-21.2-4.8-45.7 2.9-57.9 30.5-8.5 19.1-2.6 58.6 27.8 66.6 31.3 8.8 56.8-5.9 64.5-35.6 7.6-29.2-8.3-55.6-34.4-61.5z"/>
						</g>
						<g id="&lt;Group&gt;">
							<path id="&lt;Path&gt;" class="s4" d="m710.8 591.9c-5 0-10.2-0.7-15.5-2.2q-0.1 0-0.1-0.1c-11.7-3-17.9-11.6-21.1-18.2-6.5-13.6-6-29.6-2-38.5 10.6-24 29.3-27.6 39.5-27.6 3.4 0 6.8 0.4 10.2 1.2 10.4 2.3 19.1 8.6 24.6 17.6 6.1 10.1 7.7 22.5 4.4 35.1-5.3 20.5-20.3 32.7-40 32.7q0 0 0 0z"/>
						</g>
						<g id="&lt;Group&gt;">
							<path id="&lt;Path&gt;" class="s5" d="m720.1 512c-15.7-3.5-33.9 2.2-43 22.8-6.3 14.2-1.9 43.6 20.7 49.5 23.2 6.6 42.3-4.4 48-26.5 5.6-21.7-6.2-41.3-25.7-45.8z"/>
						</g>
					</g>
					<g id="&lt;Group&gt;">
						<g id="&lt;Group&gt;">
							<path id="&lt;Path&gt;" class="s3" d="m587.3 453.3c-22.5-5.1-48.4 3.1-61.5 32.4-9 20.3-2.7 62.2 29.6 70.7 33.1 9.4 60.3-6.3 68.4-37.8 8.1-31-8.8-59-36.5-65.3z"/>
						</g>
						<g id="&lt;Group&gt;">
							<path id="&lt;Path&gt;" class="s4" d="m573.9 551.5c-5.2 0-10.8-0.8-16.4-2.4q-0.1-0.1-0.1-0.1c-12.4-3.2-19-12.3-22.4-19.4-6.9-14.4-6.3-31.4-2.2-40.8 11.3-25.5 31.2-29.3 42-29.3 3.6 0 7.2 0.4 10.8 1.2 11 2.5 20.3 9.2 26.2 18.8 6.4 10.6 8.1 23.9 4.6 37.2-5.6 21.8-21.5 34.8-42.5 34.8q0 0 0 0z"/>
						</g>
						<g id="&lt;Group&gt;">
							<path id="&lt;Path&gt;" class="s5" d="m583.9 466.6c-16.7-3.8-36.1 2.3-45.7 24.2-6.8 15.1-2.1 46.3 22 52.6 24.6 6.9 44.8-4.7 50.9-28.1 6-23.1-6.6-44-27.2-48.7z"/>
						</g>
					</g>
					<g id="&lt;Group&gt;">
						<g id="&lt;Group&gt;">
							<path id="&lt;Path&gt;" class="s3" d="m284.8 176.8c-24.2-5.5-52.3 3.3-66.3 34.9-9.7 22-2.9 67.2 31.9 76.4 35.8 10.1 65.1-6.8 73.9-40.8 8.6-33.5-9.6-63.8-39.5-70.5z"/>
						</g>
						<g id="&lt;Group&gt;">
							<path id="&lt;Path&gt;" class="s4" d="m270.4 282.7c-5.7 0-11.7-0.9-17.7-2.6q-0.1 0-0.2 0c-13.3-3.5-20.5-13.3-24.1-20.9-7.5-15.6-6.9-34-2.4-44.1 12.2-27.5 33.6-31.6 45.3-31.6 3.9 0 7.8 0.4 11.7 1.3 11.9 2.7 21.9 9.9 28.2 20.2 7 11.5 8.8 25.8 5.1 40.2-6.1 23.5-23.3 37.5-45.9 37.5q0 0 0 0z"/>
						</g>
						<g id="&lt;Group&gt;">
							<path id="&lt;Path&gt;" class="s5" d="m281.1 191.2c-18-4.1-38.9 2.5-49.3 26-7.3 16.3-2.2 50 23.7 56.8 26.7 7.5 48.4-5 55-30.4 6.4-24.9-7.1-47.4-29.4-52.4z"/>
						</g>
					</g>
					<g id="&lt;Group&gt;">
						<g id="&lt;Group&gt;">
							<path id="&lt;Path&gt;" class="s3" d="m481.2 265.2c-24.2-5.5-52.3 3.3-66.3 35-9.7 21.9-2.9 67.1 31.9 76.3 35.8 10.1 65.1-6.8 73.9-40.8 8.6-33.5-9.6-63.7-39.5-70.5z"/>
						</g>
						<g id="&lt;Group&gt;">
							<path id="&lt;Path&gt;" class="s4" d="m466.8 371.1c-5.7 0-11.7-0.8-17.7-2.6q-0.1 0-0.2 0c-13.3-3.5-20.5-13.3-24.1-20.9-7.5-15.6-6.9-34-2.4-44.1 12.2-27.5 33.6-31.6 45.3-31.6 3.9 0 7.8 0.4 11.7 1.3 11.9 2.7 21.9 9.9 28.2 20.2 7 11.5 8.8 25.8 5.1 40.2-6.1 23.5-23.3 37.5-45.9 37.5q0 0 0 0z"/>
						</g>
						<g id="&lt;Group&gt;">
							<path id="&lt;Path&gt;" class="s5" d="m477.5 279.6c-18-4.1-38.9 2.5-49.3 26-7.3 16.3-2.2 50 23.7 56.8 26.6 7.5 48.4-5 55-30.3 6.4-25-7.1-47.5-29.4-52.5z"/>
						</g>
					</g>
					<g id="&lt;Group&gt;">
						<g id="&lt;Group&gt;">
							<path id="&lt;Path&gt;" class="s3" d="m613.9 170.2c-24.2-5.5-52.2 3.3-66.3 35-9.7 21.9-2.9 67.1 32 76.3 35.7 10.1 65-6.8 73.8-40.8 8.7-33.5-9.5-63.7-39.5-70.5z"/>
						</g>
						<g id="&lt;Group&gt;">
							<path id="&lt;Path&gt;" class="s4" d="m599.5 276.1c-5.7 0-11.6-0.8-17.7-2.6q-0.1 0-0.1 0c-13.4-3.5-20.5-13.3-24.2-20.9-7.5-15.6-6.8-34-2.3-44.1 12.2-27.5 33.6-31.6 45.2-31.6 3.9 0 7.8 0.4 11.7 1.3 11.9 2.7 21.9 9.9 28.2 20.3 7.1 11.4 8.8 25.7 5.1 40.1-6.1 23.5-23.2 37.5-45.9 37.5q0 0 0 0z"/>
						</g>
						<g id="&lt;Group&gt;">
							<path id="&lt;Path&gt;" class="s5" d="m610.3 184.6c-18.1-4.1-38.9 2.5-49.4 26-7.2 16.3-2.1 50 23.8 56.8 26.6 7.5 48.4-5 54.9-30.3 6.5-24.9-7.1-47.5-29.3-52.5z"/>
						</g>
					</g>
				</g>
			</g>
		</g>
	</g>
</svg>